<svg xmlns="http://www.w3.org/2000/svg" xmlns:xlink="http://www.w3.org/1999/xlink" version="1.1" x="0px" y="0px" viewBox="0 0 100 100" style="enable-background:new 0 0 100 100;" xml:space="preserve"><g><path d="M84.4003906,73.7436523l-6.1607056,1.9969482l-4.9834595-15.3754272l4.132019-12.75354   c0.0001221-0.0003052,0.0003052-0.0004883,0.0004272-0.0007935l3.9951172-12.3095703   c0.1738281-0.5361328,0.0327148-1.1245117-0.3657227-1.5234375c-0.3984375-0.3979492-0.987793-0.5405273-1.5234375-0.3662109   l-29.4956055,9.5543213L20.503418,33.4116211c-0.5361328-0.1743164-1.1245117-0.0317383-1.5234375,0.3662109   c-0.3984375,0.3989258-0.5395508,0.9873047-0.3657227,1.5234375l3.9951172,12.3095703   c0.000061,0.0003052,0.0003052,0.0004272,0.0004272,0.0007324l4.1329956,12.7566528l-4.9824829,15.3723755l-6.1607056-1.9969482   c-0.7861328-0.2548828-1.6333008,0.1762695-1.8891602,0.9643555c-0.2553711,0.7880859,0.1762695,1.6337891,0.9643555,1.8891602   l7.586731,2.4591675c0.0002441,0.000061,0.0004272,0.0002441,0.0006714,0.0003052   c0.0001831,0.000061,0.0003052,0,0.0004883,0.000061l7.5874023,2.4594116   c0.1538086,0.0498047,0.3095703,0.0737305,0.4628906,0.0737305c0.6323242,0,1.2207031-0.4038086,1.4262695-1.0380859   c0.2553711-0.7880859-0.1762695-1.6337891-0.9643555-1.8891602l-6.1610718-1.9970703l4.9802246-15.3655396l17.5020752-12.7784424   c0.0003052-0.0002441,0.0007324-0.0003052,0.0010376-0.0005493l2.9017944-2.1206055l2.9014282,2.1206055   c0.0003052,0.0002441,0.0007324,0.0003052,0.0010376,0.0005493l17.505127,12.7802734l4.9796143,15.3637085l-6.1610718,1.9970703   c-0.7880859,0.2553711-1.2197266,1.1010742-0.9643555,1.8891602c0.2055664,0.6342773,0.7939453,1.0380859,1.4262695,1.0380859   c0.1533203,0,0.3095703-0.0239258,0.4628906-0.0737305l7.5874023-2.4594116c0.0001831-0.000061,0.0003052,0,0.0004883-0.000061   c0.0002441-0.000061,0.0004272-0.0002441,0.0006714-0.0003052l7.586731-2.4591675   c0.7880859-0.2553711,1.2197266-1.1010742,0.9643555-1.8891602S85.1860352,73.4887695,84.4003906,73.7436523z    M45.7369385,45.7993774c-0.0960693-0.0020752-0.1948853-0.0031738-0.2875977-0.0064697   c-0.1365967-0.0048828-0.2718506-0.0102539-0.4015503-0.0176392c-0.164978-0.0093384-0.3232422-0.0212402-0.4779663-0.0343628   c-0.123291-0.010498-0.2467651-0.020813-0.3640747-0.0335693c-0.1465454-0.0158691-0.286377-0.0343018-0.4243774-0.0534058   c-0.1102905-0.0152588-0.2219849-0.0300293-0.3273315-0.0471802c-0.1328125-0.0216064-0.2592773-0.0457153-0.3850708-0.0701294   c-0.098999-0.019165-0.2001953-0.0375977-0.2954102-0.0582886c-0.1222534-0.0266113-0.2390137-0.055542-0.355896-0.0844727   c-0.0894165-0.0220947-0.1811523-0.0431519-0.2678223-0.0664673c-0.1174927-0.0315552-0.2306519-0.0651245-0.3441162-0.0985107   c-0.0795898-0.0234375-0.161377-0.0458984-0.2394409-0.0700684c-0.1158447-0.0358887-0.2290039-0.0733032-0.3425293-0.1105957   c-0.0731812-0.0239868-0.147583-0.0472412-0.2202148-0.0717163c-0.1793213-0.0604248-0.3574829-0.1219482-0.5367432-0.184021   c-1.6801758-0.581543-3.4169922-1.1826172-6.7265625-1.1826172c-3.3081055,0-5.0600586,0.6279297-6.6054688,1.1821289   c-0.2875366,0.1032104-0.5723267,0.2026978-0.8623657,0.2990723c-0.0903931,0.0300293-0.1846313,0.0579834-0.2767334,0.0869141   c-0.2351685,0.0739746-0.4813232,0.1422119-0.7359619,0.206604c-0.0669556,0.0169678-0.1338501,0.0340576-0.2026367,0.0501709   L22.375,37.1713867l24.3676758,7.8930664L45.7369385,45.7993774z M66.2573242,43.6098633   c-3.3095703,0-5.0463867,0.6010742-6.7265625,1.1826172c-0.1784668,0.0618286-0.355896,0.1230469-0.5344849,0.1832886   c-0.0800781,0.0269775-0.1621704,0.0526123-0.242981,0.0791016c-0.105957,0.034729-0.2114258,0.0697021-0.319519,0.1032104   c-0.0821533,0.0255127-0.1680298,0.0491333-0.2518921,0.0737305c-0.1098633,0.0322876-0.2191772,0.0646973-0.3327637,0.0952148   c-0.0884399,0.0238037-0.1819458,0.0452881-0.2731934,0.0678101c-0.1152344,0.0284424-0.2302856,0.0570068-0.3508301,0.083252   c-0.0961914,0.0209351-0.1984253,0.0395508-0.2985229,0.0588989c-0.125,0.024231-0.2504883,0.0481567-0.3823853,0.0696411   c-0.105835,0.0172119-0.2180786,0.0321045-0.3288574,0.0474243c-0.1376343,0.019043-0.2770386,0.0373535-0.4230957,0.0532227   c-0.1175537,0.0127563-0.241272,0.0231934-0.3648071,0.0336914c-0.1546021,0.0131226-0.3127441,0.0249634-0.4776001,0.0343018   c-0.1297607,0.0073853-0.2650146,0.0127563-0.4016113,0.0176392c-0.0927124,0.0032959-0.1915894,0.0043945-0.2875977,0.0064697   l-1.005249-0.7349243l24.3676758-7.8930664l-2.6820679,8.2633667c-0.0689087-0.0161743-0.1358643-0.0332031-0.2028809-0.0502319   c-0.2544556-0.0643311-0.5004883-0.1326294-0.7354736-0.2064819c-0.0923462-0.0290527-0.1868286-0.0570068-0.2774658-0.0871582   c-0.289856-0.0963745-0.5744629-0.1957397-0.8618774-0.2988892C71.3173828,44.237793,69.565918,43.6098633,66.2573242,43.6098633z"></path><path d="M64.3878174,27.5969238c0.4864502-0.6743164,0.3342285-1.6152954-0.3400269-2.1017456   c-0.6742554-0.4865112-1.6152344-0.3342285-2.1017456,0.3400269L51.6392212,40.1206665l12.5814209-12.3294067   C64.2784424,27.7338257,64.338562,27.6651611,64.3878174,27.5969238z"></path><path d="M48.5613403,40.0932007L38.2821655,25.8353882c-0.0482178-0.065979-0.1072388-0.1358032-0.1675415-0.1948242   c-0.5938721-0.5819702-1.5469971-0.5723267-2.1289673,0.0215454c-0.5819092,0.5938721-0.5722656,1.5470581,0.0216064,2.1289673   L48.5613403,40.0932007z"></path><path d="M51.5958862,19.9108276c0.0064697-0.081665,0.0072021-0.1733398,0-0.2576294   c-0.071167-0.8284302-0.800415-1.4423218-1.6288452-1.3711548c-0.8284302,0.071106-1.4423218,0.800415-1.3711548,1.6287842   l1.5,17.4641724L51.5958862,19.9108276z"></path></g></svg>