<svg xmlns="http://www.w3.org/2000/svg" xmlns:xlink="http://www.w3.org/1999/xlink" version="1.1" x="0px" y="0px" viewBox="0 0 30 30" xml:space="preserve"><g transform="translate(-150 -80)"><g xmlns="http://www.w3.org/2000/svg" xmlns:xlink="http://www.w3.org/1999/xlink"><path d="M157.929,87.93c-2.646,2.646-4.182,5.988-4.996,9.145l9.993,9.994c3.156-0.815,6.499-2.351,9.145-4.997    c2.646-2.646,4.182-5.989,4.996-9.146l-9.993-9.993C163.918,83.748,160.575,85.283,157.929,87.93z M170.657,90.758l-1.415,1.414    l1.415,1.414L169.242,95l-1.414-1.414L166.414,95l1.414,1.414l-1.414,1.414L165,96.414l-1.414,1.414L165,99.243l-1.414,1.414    l-1.414-1.414l-1.414,1.414l-1.415-1.414l1.415-1.415l-1.415-1.414L160.758,95l1.414,1.414L163.586,95l-1.414-1.414l1.414-1.414    L165,93.586l1.414-1.414L165,90.758l1.414-1.414l1.414,1.414l1.414-1.414L170.657,90.758z"></path><path d="M152.979,107.021c0.628,0.629,3.159,1.027,6.356,0.699l-7.057-7.057C151.952,103.861,152.351,106.393,152.979,107.021z"></path><path d="M170.664,82.279l7.057,7.057c0.327-3.197-0.071-5.729-0.7-6.356C176.393,82.352,173.861,81.953,170.664,82.279z"></path></g></g></svg>