<svg xmlns:dc="http://purl.org/dc/elements/1.1/" xmlns:cc="http://creativecommons.org/ns#" xmlns:rdf="http://www.w3.org/1999/02/22-rdf-syntax-ns#" xmlns:svg="http://www.w3.org/2000/svg" xmlns="http://www.w3.org/2000/svg" version="1.1" viewBox="0 0 100 100" xml:space="preserve" x="0px" y="0px"><path d="m 29.78125,9.71875 c -13.622734,0 -26.0715684,11.138384 -24.65625,24.6875 0.5426918,5.1958 1.9210601,9.739271 3.90625,13.84375 l 26,0 3.25,-15.1875 c 0.165599,-0.776507 0.894071,-1.4078 1.6875,-1.4375 0.450173,-0.0162 0.909626,0.142305 1.25,0.4375 0.340555,0.295016 0.54623,0.739485 0.59375,1.1875 l 2,18.5625 3.875,-9.75 c 0.291055,-0.724129 1.067961,-1.212299 1.84375,-1.125 0.775608,0.0873 1.470994,0.760321 1.59375,1.53125 L 53.21875,55.6875 59.6875,35.28125 c 0.236336,-0.737987 1.006542,-1.27394 1.78125,-1.25 0.774709,0.02394 1.497244,0.592443 1.6875,1.34375 l 3.21875,12.875 23.9375,0 C 93.145119,43.725588 94.915762,39.143058 95,34.40625 95.242097,20.785497 83.966483,9.71875 70.34375,9.71875 c -8.402273,0 -15.827398,4.896137 -20.28125,11.3125 C 45.608647,14.614887 38.183522,9.71875 29.78125,9.71875 z M 61.1875,42.4375 54.34375,64.03125 c -0.242817,0.764809 -1.043482,1.309398 -1.84375,1.25 -0.800267,-0.05922 -1.497562,-0.707652 -1.625,-1.5 L 48.59375,49.5 44.4375,59.90625 C 44.140323,60.643699 43.318917,61.108899 42.53125,61 41.743582,60.891282 41.086038,60.228049 41,59.4375 l -1.5625,-14.625 -1.21875,5.625 c -0.170456,0.796129 -0.935872,1.40445 -1.75,1.40625 l -25.5,0 C 20.397367,67.402894 38.597393,76.351262 50.0625,90.28125 61.177511,76.961091 78.257996,64.624456 87.84375,51.84375 l -22.875,0 c -0.797389,0 -1.557942,-0.569763 -1.75,-1.34375 L 61.1875,42.4375 z" style="" fill-opacity="1" fill-rule="evenodd" stroke="none" overflow="visible"></path></svg>