<svg fill="#F48842" xmlns="http://www.w3.org/2000/svg" xmlns:xlink="http://www.w3.org/1999/xlink" version="1.1" x="0px" y="0px" viewBox="0 0 50 50" enable-background="new 0 0 50 50" xml:space="preserve"><g><path d="M43.5,22.5l-5.9-11.6L27.4,22.7l-3.2-7l-3.5,5l-6.2-9.4l-4.6,7.8l-3.6-0.6L1,36.3l1.5,0.9l4.2-0.9h4.4v0.9l3-0.3l3.6-4.3   l3.6-0.9l1.8-5l-0.1,5.7l-3.2,1.6l-0.5,2.3l1.3-0.1H25l1.1,2.1l9.3-0.8l7.1,1.5l-0.8-2l-3.1-2.3l0.5-5.6l1.9,5l3.3,1.5l1.7,3l3-0.2   l-3.7-16.1L43.5,22.5z M20.7,28.7h-0.9l-4.1-2.4L15.3,30l-4.7-4.7l-3.6,3.8l0.6-3.6L5.1,30l2.1-9.3l3.3,2.1l3.1,3.6l-2.4-4.4   l3.9-7.7l5.7,10.9V28.7z M24.3,25.8l0.2,2.4l-2.3-4.7l1.6-5.9l4.8,13.7L24.3,25.8z M28.8,24.5l2.4-2.5l2,2.9l-2.6,5L28.8,24.5z    M42.7,29.8L42.5,30l-4.2-6.8l-1.3,4.4l-5.7,4.3l3.8-7.1L32,21l5.3-6.8l5.4,10.4V29.8z"></path></g></svg>