<svg fill="#F48842" xmlns="http://www.w3.org/2000/svg" xmlns:xlink="http://www.w3.org/1999/xlink" version="1.1" x="0px" y="0px" viewBox="0 0 512 512" style="enable-background:new 0 0 512 512;" xml:space="preserve"><g><g><path style="" d="M76.104,350.35l-8.026,4.198c-2.047,1.063-4.156,2.19-6.101,3.378    c-5.467,3.338-23.916,24.468-34.337,36.426l-1.638,1.863c3.337-0.186,6.715-0.389,10.094-0.615l2.826-0.184l8.825-11.834    c0.266-0.41,0.676-0.758,1.187-0.963l28.87-11.016c2.273-1.863,18.613-15.152,26.065-20.823    c7.596-5.774,14.251-24.468,14.271-24.509c0.471-1.311,1.925-1.986,3.215-1.495c1.311,0.472,1.986,1.925,1.495,3.215    c0,0.062-7.105,20.046-15.951,26.761c-8.415,6.409-26.208,20.988-26.27,21.028c-0.226,0.185-0.471,0.308-0.737,0.409    l-28.481,10.873l-5.938,7.965c2.293-0.123,4.628-0.226,6.982-0.287c3.973-0.102,25.512,0.778,38.678,1.311    c4.955,0.205,7.924,0.654,8.927,0.635l2.682-2.724l0.103-0.102l6.573-7.044c1.024-1.168,2.026-2.334,3.03-3.521l0.02-0.041    l0.123-0.144l0.062-0.082c3.665-4.565,6.429-8.906,9.746-14.024l0.798-1.25c2.724-4.238,5.365-7.862,7.925-11.037    c2.969-3.889,6.265-7.451,11.732-12.141l0.143-0.123l0.062-0.061c3.379-2.928,6.778-5.55,10.258-8.232    c4.71-3.645,9.623-7.432,14.988-12.428l0.062-0.062l0.184-0.164l0.041-0.041c0.778-0.737,1.556-1.515,2.354-2.313    c-3.235-1.72-8.107-4.341-10.483-5.713c-0.491-0.123-0.962-0.389-1.331-0.818l-0.062-0.082    c-0.655-1.352-5.488-15.541-9.234-26.496l-2.703-7.902c-2.416,3.092-4.504,5.568-6.716,8.006    c-3.01,3.275-6.225,6.367-10.893,10.585c-14.313,12.981-15.439,14.907-24.714,30.774l-0.675,1.127    C99.732,338.167,85.953,345.271,76.104,350.35 M459.442,370.928l-3.563-8.825c-0.327-0.675-0.327-1.494,0.021-2.211    c0.307-0.594,0.841-1.024,1.434-1.229l-3.685-9.11c-0.246-0.636-0.246-1.392,0.081-2.048c0.287-0.572,0.778-1.004,1.331-1.229    l-2.438-6.02c-0.123-0.348-0.184-0.717-0.163-1.085l-3.89-9.624c-7.249-3.152-8.621-6.941-10.505-13.104    c-1.944,6.326-3.009,9.48-10.667,13.063l-1.966,4.854l-0.021,0.062l-0.041,0.102l-1.904,4.689c0.021,0.185,0.021,0.348-0.02,0.532    l0,0v0.041l0,0v0.02h-0.021v0.041l0,0l-0.02,0.063l0,0v0.041l0,0v0.04l0,0l-0.021,0.042l0,0v0.02l0,0l-0.021,0.041l0,0v0.021l0,0    l-0.02,0.041l0,0v0.042l0,0l-0.021,0.02l0,0l-0.021,0.041l0,0v0.041l0,0l-2.539,6.286l0.062,0.021l0,0l0.062,0.021l0,0    l0.041,0.021l0,0l0.062,0.041l0,0l0.062,0.02l0,0l0.062,0.042l0,0l0.041,0.04h0.021l0.041,0.021l0,0l0.062,0.04l0,0l0.04,0.041    l0,0l0.042,0.042h0.02l0.042,0.02l0,0l0.041,0.041l0,0l0.04,0.041h0.021l0.04,0.041l0,0l0.041,0.041l0,0l0.041,0.062l0,0    l0.041,0.04l0,0l0.041,0.041l0,0l0.041,0.042l0,0l0.041,0.062l0,0l0.041,0.04l0,0l0.02,0.041h0.021l0.021,0.062l0,0l0.041,0.041    l0,0l0.021,0.063h0.02l0.021,0.039l0,0l0.021,0.063h0.02l0.021,0.041l0,0l0.021,0.061l0,0l0.041,0.063l0,0l0.021,0.061l0,0    l0.02,0.041l0,0l0.021,0.063l0,0l0.021,0.061l0,0l0.02,0.063l0,0l0.021,0.039l0,0v0.063h0.021v0.061l0,0l0.02,0.063l0,0    l0.021,0.061l0,0v0.063l0,0l0.021,0.062l0,0v0.062l0,0v0.061l0,0v0.041h0.02v0.082l0,0v0.041v0.144v0.04l0,0v0.063h-0.02v0.061    l0,0v0.062l0,0v0.062h-0.021v0.062l0,0l-0.021,0.083l0,0v0.039l0,0l-0.02,0.083l0,0l-0.021,0.04l0,0l-0.021,0.063l0,0l-0.02,0.061    l0,0l-0.021,0.062l0,0l-0.021,0.062l0,0l-3.686,9.132l0.103,0.041v0.021l0.062,0.021l0,0l0.061,0.02l0,0l0.062,0.02l0,0    l0.062,0.042l0,0l0.042,0.021l0,0l0.062,0.041l0,0l0.062,0.02l0,0l0.04,0.041l0,0l0.062,0.042l0,0l0.041,0.021v0.021l0.062,0.021    l0,0l0.042,0.041l0,0l0.04,0.041l0,0l0.062,0.041l0,0l0.041,0.041l0,0l0.041,0.04l0,0l0.041,0.042l0,0l0.041,0.041v0.02    l0.041,0.041l0,0l0.04,0.041l0,0l0.042,0.041l0,0l0.041,0.062l0,0l0.021,0.041l0,0l0.041,0.04v0.021l0.04,0.041l0,0l0.021,0.041    v0.02l0.04,0.041l0,0l0.021,0.063l0,0l0.04,0.041l0,0l0.021,0.061l0,0l0.02,0.041l0,0l0.021,0.061l0,0l0.021,0.063l0,0    l0.021,0.061l0,0l0.021,0.041l0,0l0.021,0.063l0,0l0.021,0.061l0,0l0.021,0.063l0,0l0.021,0.061l0,0v0.041v0.021l0.021,0.042l0,0    l0.021,0.061l0,0v0.062l0,0v0.062l0,0l0.021,0.062l0,0v0.062l0,0v0.061l0,0v0.063l0,0v0.061l0,0v0.063l0,0v0.061l0,0v0.062l0,0    v0.062l0,0l-0.021,0.062l0,0v0.062l0,0l-0.021,0.062l0,0v0.062l0,0l-0.021,0.061l0,0l-0.021,0.063l0,0v0.061l0,0l-0.021,0.062l0,0    l-0.021,0.062l0,0l-0.021,0.062l0,0l-0.041,0.062l0,0l-3.665,9.092l0.328-0.145l0,0l0.347-0.143l0,0l0.328-0.144l0,0l0.348-0.122    v-0.021l0.328-0.123l0,0l0.348-0.143l0,0l0.328-0.123l0,0l0.328-0.123l0,0l0.348-0.145l0,0l0.328-0.122l0,0l0.348-0.123l0,0    l0.328-0.122l0,0l0.348-0.123l0,0l0.328-0.102l0,0l0.327-0.123l0,0l0.348-0.104l0,0l0.328-0.123l0,0l0.348-0.102l0,0l0.328-0.102    v-0.021l0.348-0.102l0,0l0.328-0.104l0,0l0.348-0.102l0,0l0.328-0.082l0,0l0.347-0.104l0,0l0.328-0.102l0,0l0.348-0.082l0,0    l0.328-0.102l0,0l0.348-0.082l0,0l0.328-0.082l0,0l0.348-0.082v-0.021l0.328-0.061v-0.021l0.328-0.062v-0.021l0.348-0.061l0,0    l0.328-0.082l0,0l0.347-0.082l0,0l0.328-0.061l0,0l0.348-0.062v-0.021l0.328-0.063l0,0l0.348-0.061l0,0l0.328-0.063l0,0    l0.348-0.061l0,0l0.328-0.062l0,0l0.349-0.062l0,0l0.327-0.041l0,0l0.348-0.061l0,0l0.327-0.041l0,0l0.349-0.041v-0.021    l0.327-0.041l0,0l0.349-0.041l0,0l0.327-0.04l0,0l0.35-0.042l0,0l0.326-0.02v-0.021l0.349-0.02l0,0l0.348-0.041l0,0l0.328-0.021    l0,0l0.348-0.021v-0.021h0.328v-0.02l0.348-0.02l0,0l0.328-0.021l0,0l0.348-0.021l0,0h0.328l0,0l0.347-0.021l0,0h0.328v-0.021    h0.348l0,0c0.451,0,0.902-0.021,1.353,0h0.327h0.021h0.327l0,0h0.328h0.021l0.327,0.021h0.021h0.307l0.021,0.021h0.307h0.041    l0.307,0.021h0.021l0.655,0.041h0.041l0.286,0.02h0.041l0.308,0.042h0.041l0.286,0.021h0.062l0.286,0.041h0.042l0.347,0.041    l0.267,0.02h0.062l0.286,0.042h0.062l0.267,0.04h0.062l0.348,0.062l0.267,0.021l0.062,0.021l0.287,0.041h0.062l0.266,0.041    l0.082,0.02l0.246,0.041l0.081,0.021l0.267,0.041h0.082l0.246,0.061h0.081l0.266,0.041l0.083,0.021l0.246,0.061h0.102l0.245,0.062    l0.083,0.021l0.245,0.041l0.103,0.02l0.226,0.063l0.103,0.02l0.245,0.041l0.103,0.021l0.226,0.062l0.102,0.021l0.246,0.061    l0.103,0.021l0.226,0.062l0.123,0.02l0.225,0.063l0.103,0.021l0.226,0.062l0.122,0.041l0.205,0.061l0.123,0.021l0.225,0.061    l0.123,0.042l0.205,0.062l0.123,0.02l0.225,0.063l0.123,0.041l0.205,0.061l0.123,0.041l0.203,0.061l0.145,0.042l0.205,0.062    l0.123,0.041l0.204,0.062l0.144,0.062l0.205,0.061l0.143,0.041l0.185,0.062l0.143,0.062l0.185,0.061l0.164,0.063l0.327,0.102    l0.185,0.082l0.164,0.041l0.185,0.082l0.143,0.041l0.185,0.082l0.165,0.061l0.163,0.063l0.163,0.061l0.184,0.063l0.165,0.082    l0.164,0.061l0.164,0.063l0.184,0.081l0.164,0.062l0.327,0.143l0.164,0.063l0.185,0.082l0.163,0.061l0.164,0.082l0.164,0.083    l0.185,0.081l0.143,0.062l0.205,0.082L459.442,370.928z M440.482,382.701c0,1.393-1.127,2.518-2.519,2.518    c-1.372,0-2.499-1.125-2.499-2.518v-11.18l-0.204,0.02l0,0l-0.389,0.042l-0.39,0.021l-0.39,0.041l-0.388,0.061l-0.41,0.042l0,0    l-0.389,0.062l-0.389,0.041l0,0l-0.39,0.062l-0.409,0.062l-0.39,0.061l-0.389,0.082l-0.389,0.062l-0.39,0.081l0,0l-0.408,0.083    l-0.39,0.081l0,0l-0.39,0.082l-0.409,0.082l-0.39,0.103l-0.389,0.082l-0.389,0.103l-0.409,0.102l-0.389,0.104l-0.39,0.102    l-0.409,0.123l0,0l-0.39,0.103l-0.39,0.122l-0.389,0.123l-0.409,0.123l-0.389,0.123l-0.389,0.123l-0.41,0.143l-0.389,0.145    l-0.39,0.122l-0.409,0.144l-0.389,0.144l-0.39,0.163l-0.409,0.145l-0.39,0.143l-0.389,0.164l-0.409,0.163l-0.39,0.164    l-0.388,0.164l-0.411,0.164l-0.389,0.163l-0.389,0.185l-0.409,0.185l-0.389,0.164l-0.39,0.184l-0.409,0.185l-0.39,0.204    l-0.39,0.185l-0.408,0.185l-0.39,0.205l-0.409,0.204l-0.39,0.206l-0.389,0.203l-0.409,0.205c-1.208,0.635-2.744,0.164-3.378-1.044    c-0.369-0.696-0.369-1.454-0.104-2.109l4.034-10.012l-0.062-0.021l-0.041-0.021l-0.062-0.021l0,0l-0.041-0.021l-0.103-0.061    h-0.021l-0.041-0.021l0,0l-0.04-0.021l-0.103-0.061l0,0l-0.287-0.206l0,0l-0.04-0.04l0,0c-0.123-0.103-0.226-0.226-0.328-0.349    l0,0l-0.062-0.103h-0.021l-0.143-0.266c-0.083-0.145-0.145-0.287-0.185-0.43v-0.021c-0.185-0.553-0.144-1.125,0.062-1.638    l3.746-9.255l-0.205-0.082l0,0c-0.471-0.225-0.86-0.594-1.105-1.085c-0.368-0.675-0.389-1.434-0.123-2.108l4.034-9.973    c-0.021-0.367,0.04-0.756,0.185-1.084l1.699-4.219c-3.215-2.62-7.289-7.228-11.322-12.326    c-5.836-7.35-11.631-15.786-14.579-20.617l-0.021-0.063c-1.27-2.15-2.108-3.869-2.723-5.118c-0.226-0.472-0.308-0.962-0.247-1.434    c-0.47-0.081,0.063,0.553-0.941,1.351c-1.003,0.82-2.334,1.885-4.238,3.256l-4.259,3.154    c-9.132,6.715-27.846,20.536-30.569,20.945c-1.331,0.205-3.625-0.102-6-0.409l-1.924-0.267c-0.798-0.123-1.453-0.654-1.802-1.331    c0.655,1.905,1.372,3.747,2.211,5.446c1.454,2.396,3.235,4.895,4.751,6.84l0.041,0.062l0,0c1.924,2.19,4.319,4.667,6.797,7.083    c1.658,1.619,3.338,3.195,4.956,4.607l0.122,0.104l0.041,0.04c3.03,2.58,6.184,4.914,9.071,6.471l0.021,0.021    c1.412,0.757,2.764,1.556,4.054,2.333l0.081,0.062c3.072,1.74,5.652,3.317,8.17,5.099c3.932,2.826,7.556,6.081,12.326,11.221    c0.922,1.004,1.863,1.986,2.785,2.948l2.662,2.662l2.559,2.58l0.144,0.143l0.082,0.082l0.144,0.144    c2.026,1.985,4.074,3.911,6.163,5.814c4.954,4.505,10.053,8.825,15.581,13.31c1.105,0.9,2.191,1.638,2.97,2.15    c0.449,0.307,0.859,0.572,1.187,0.859c0.41,0.164,0.799,0.287,1.167,0.368c19.165,4.219,27.293,1.7,36.385-1.085    c5.549-1.72,11.467-3.542,20.148-4.156c-3.071-2.785-6.368-5.836-9.787-9.029l-10.074-9.501v0.021h-0.021l-0.021,0.021    l-0.021,0.02l0,0l-0.021,0.02l-0.021,0.021l0,0l-0.021,0.021l-0.021,0.021h-0.021l-0.021,0.021v0.021h-0.021l-0.021,0.02h-0.021    v0.021l-0.041,0.02l0,0l-0.021,0.021l-0.02,0.021l0,0l-0.021,0.021l-0.04,0.02l0,0h-0.021l-0.02,0.021h-0.021l-0.021,0.02    l-0.02,0.021l0,0l-0.021,0.021h-0.041v0.021h-0.021l-0.021,0.02h-0.021l-0.021,0.021h-0.021v0.02h-0.041l-0.021,0.021l0,0H465.4    l-0.041,0.021l-0.062,0.021c-0.757,0.308-1.597,0.204-2.252-0.185l-0.389-0.245l-0.39-0.226l-0.389-0.246l-0.389-0.225    l-0.39-0.205l-0.409-0.225l0,0l-0.39-0.205l-0.39-0.226l-0.389-0.204l0,0l-0.389-0.185l-0.389-0.204l-0.409-0.185l-0.39-0.205l0,0    l-0.389-0.185l0,0l-0.389-0.164l-0.39-0.184l-0.39-0.164l-0.388-0.184l0,0l-0.41-0.145v-0.02l-0.389-0.144l-0.389-0.164l0,0    l-0.39-0.144l0,0l-0.389-0.143l-0.389-0.164l0,0l-0.39-0.123l-0.39-0.144l-0.409-0.122l-0.39-0.144l-0.389-0.123l0,0l-0.389-0.103    l-0.39-0.123l-0.389-0.123l0,0l-0.389-0.102l-0.39-0.103l-0.389-0.103l0,0l-0.389-0.103l-0.41-0.081l-0.389-0.082l-0.389-0.082    V372.3l-0.39-0.082l-0.389-0.062l-0.389-0.082l0,0l-0.39-0.062l-0.389-0.062l-0.389-0.082l-0.39-0.041l0,0l-0.39-0.061    l-0.389-0.063l0,0l-0.409-0.041l-0.389-0.04l-0.389-0.041l0,0l-0.39-0.042l0,0l-0.389-0.02l0,0l-0.389-0.041l0,0l-0.39-0.021l0,0    l-0.39-0.021l-0.389-0.021l0,0h-0.266V382.701z M226.802,241.36c-2.559,6.675-6.244,10.032-10.134,13.575    c-4.32,3.91-8.927,8.107-12.122,18.1l-1.556,5.283c-2.109,7.269-2.499,8.619-8.334,18.202l-11.917,19.533l-0.327,0.409    c-1.904,2.028-3.604,3.809-5.18,5.447c-0.103,0.143-0.206,0.287-0.307,0.389c-1.905,1.967-3.747,3.768-5.528,5.426l-0.062,0.063    l-0.184,0.163l-0.103,0.082l-0.082,0.082l-1.291,1.208c-3.972,3.623-8.107,6.982-14.189,11.568l-0.061,0.061    c-3.706,2.826-6.737,5.264-9.276,7.412c-3.685,3.256-7.371,6.922-11.179,11.59c-1.822,2.437-3.522,5.016-5.569,8.148    c-2.314,3.502-5.078,7.699-8.784,12.9l-0.042,0.041c-1.433,1.924-2.886,3.787-4.381,5.568l-0.082,0.103l-0.042,0.062    c-0.655,0.799-1.331,1.617-2.048,2.437l-0.102,0.122l-0.717,0.779l-0.062,0.081h-0.02l-0.083,0.103l-0.86,0.963    c-1.597,1.781-3.255,3.521-4.935,5.262c5.201,0.061,9.93,0.021,14.66-0.185c6.368-0.308,12.736-0.962,20.312-2.252l0.144-0.021    c7.125-1.27,12.654-1.802,17.526-1.904c3.153-0.061,6,0.041,8.805,0.246v-0.021l-0.02-0.04v-0.021h-0.021l-0.02-0.062l0,0    l-0.02-0.062l0,0l-0.021-0.062v-0.021v-0.02l0,0l-0.041-0.145l0,0v-0.02v-0.021l-0.021-0.021l0,0l-0.02-0.164v-0.041h-0.021v-0.02    l0,0v-0.042l0,0v-0.021v-0.021v-0.021l0,0v-0.02v-0.062l0,0v-0.246v-0.021v-0.123l0,0l0.021-0.021v-0.021l0,0v-0.021v-0.021v-0.02    l0,0v-0.041h0.02v-0.021v-0.021v-0.021l0,0v-0.02l0.021-0.041v-0.021v-0.021v-0.021l0,0l0.02-0.021v-0.021v-0.02l0,0l0.021-0.021    v-0.021v-0.021l0,0l0.021-0.041l0,0l0,0v-0.021l0,0v-0.021l0.02-0.02l0,0v-0.041l0,0l0.02-0.021v-0.041l5.651-13.964l0,0v-0.041    l0,0v-0.082l0,0l-0.02-0.041l0,0v-0.041l0,0v-0.041v-0.021v-0.021v-0.02v-0.082v-0.041l0,0v-0.041l0,0v-0.041l0,0v-0.041l0,0    l0.02-0.041l0,0v-0.041l0,0v-0.041l0,0v-0.041l0,0v-0.041l0,0l0.021-0.041l0,0v-0.041l0,0l0.02-0.041l0,0v-0.041l0,0l0.021-0.041    l0,0v-0.041l0,0l0.021-0.041l0,0v-0.04l0,0l0.02-0.042l0,0v-0.041l0,0l0.021-0.04l0,0l0.021-0.041l0,0l0.02-0.042l0,0v-0.04l0,0    l6.634-16.38c0.246-0.635,0.737-1.105,1.311-1.352l0.45-0.205l0.41-0.184l0.41-0.205l0.41-0.185l0.389-0.204l0.389-0.185    l0.348-0.185h0.021l0.348-0.205l0,0l0.348-0.184l0.327-0.205l0.328-0.184l0.328-0.206l0.307-0.185l0,0l0.287-0.184l0,0    l0.287-0.205l0,0l0.286-0.184l0,0l0.267-0.205l0,0l0.266-0.184l0,0l0.492-0.41l0,0l0.246-0.184l0,0l0.225-0.205l0.226-0.205l0,0    l0.205-0.204h0.02l0.206-0.204l0,0l0.184-0.206h0.02l0.185-0.204l0.184-0.226l0,0l0.369-0.431l0,0l0.164-0.203l0,0    c0.184-0.227,0.327-0.451,0.491-0.676l0,0l0.43-0.677l0,0l0.41-0.716l0,0c0.47-0.901,0.86-1.863,1.249-2.908l0,0l0.307-0.881l0,0    c0.328-1.002,0.656-2.088,1.024-3.255l0.021-0.083l0.021-0.039l0.02-0.083l0.021-0.062l0.021-0.062l0.02-0.062l0.021-0.082    l0.02-0.041l0.021-0.081l0.021-0.062l0.02-0.062l0.02-0.062l0.021-0.082l0.02-0.041l0.02-0.081l0.021-0.062l0.021-0.062    l0.02-0.062l0.021-0.082l0.02-0.062l0.021-0.062l0.021-0.062l0.02-0.081l0.021-0.063l0.021-0.061l0.02-0.062l0.02-0.083    l0.021-0.061l0.021-0.063l0.02-0.081l0.021-0.062l0.021-0.061l0.02-0.082l0.021-0.062l0.02-0.062l0.021-0.082l0.021-0.063    l0.02-0.081l0.02-0.062l0.042-0.082v-0.061l0.041-0.062l0.021-0.062l0.02-0.082l0.021-0.063l0.02-0.081l0.021-0.062l0.021-0.082    l0.02-0.062l0.042-0.081l0.02-0.063l0.02-0.102l0.021-0.041l0.02-0.103l0.02-0.042l0.042-0.102v-0.041l0.041-0.103l0.02-0.062    l0.021-0.082l0.021-0.061l0.041-0.082v-0.062l0.041-0.103l0.02-0.041l0.042-0.102v-0.041l0.041-0.123l0.021-0.041l0.02-0.103    l0.021-0.041l0.041-0.103l0.021-0.062l0.04-0.103v-0.041l0.042-0.122l0.02-0.021l0.042-0.122v-0.041l0.041-0.123l0.02-0.041    l0.042-0.103v-0.04l0.041-0.123l0.021-0.041l0.041-0.123l0.02-0.021l0.042-0.144v-0.021l0.062-0.143v-0.021l0.04-0.122    l0.021-0.041l0.041-0.123l0.021-0.041l0.041-0.123v-0.021l0.062-0.144v-0.02l0.061-0.145v-0.02l0.062-0.144v-0.021l0.062-0.164    v-0.021l0.062-0.144v-0.02l0.062-0.145v-0.02l0.061-0.143v-0.021l0.062-0.163l0,0l0.062-0.164l0,0l0.062-0.164v-0.021l0.062-0.164    l0,0l0.061-0.164l0,0l0.062-0.184h0.021l0.062-0.164l0,0l0.062-0.184l0,0l0.062-0.164c0.511-1.29,1.965-1.945,3.255-1.454    c0.675,0.266,1.188,0.819,1.434,1.454c1.351,3.501,2.272,6.511,3.092,9.152c2.355,7.698,3.726,12.183,12.633,15.725    c0.655,0.267,1.147,0.777,1.393,1.393l6.654,16.42l0,0v0.042l0,0l0.021,0.041l0,0l0.021,0.04l0,0v0.041l0,0l0.02,0.042l0,0    l0.02,0.021v0.02v0.021v0.02l0.021,0.021v0.021v0.021v0.021l0.021,0.021v0.041l0,0l0.02,0.04v0.021v0.021l0,0v0.041l0,0v0.04l0,0    l0.021,0.041l0,0v0.042v0.039l0,0v0.042l0,0v0.041l0,0v0.04l0,0v0.041l0,0v0.042l0,0v0.04v0.041l0,0v0.041v0.041v0.041l0,0v0.041    v0.041v0.041l-0.021,0.041l5.651,13.964c0.512,1.29-0.102,2.765-1.392,3.276h-0.042l-0.02,0.021l-0.041,0.021h-0.021l-0.041,0.02    h-0.02h-0.042l-0.02,0.021h-0.042l0,0l-0.02,0.02h-0.041l0,0h-0.021l-0.04,0.021l0,0h-0.021h-0.041l0,0l-0.021,0.021h-0.062    l-0.062,0.021h-0.04l0,0h-0.021h-0.04l0,0h-0.042h-0.02h-0.041h-0.021h-0.041h-0.021l0,0h-0.041h-0.02l0,0h-0.042l0.533,1.289    l22.42,0.328l0.696-1.74c-0.553-0.226-1.044-0.636-1.331-1.209c-0.347-0.717-0.347-1.515-0.041-2.19l3.992-9.868    c-0.02-0.369,0.042-0.737,0.184-1.065l4.791-11.917c0.246-0.613,0.737-1.105,1.331-1.351c6.532-2.907,7.31-5.386,8.907-10.627    c0.614-1.986,1.311-4.278,2.396-7.063c0.491-1.29,1.945-1.926,3.234-1.434c0.676,0.267,1.188,0.799,1.434,1.434    c0.983,2.539,1.658,4.75,2.253,6.695c1.638,5.363,2.62,8.518,8.763,10.953c0.655,0.267,1.147,0.779,1.393,1.413l4.812,11.896    c0.144,0.349,0.205,0.717,0.185,1.065l4.034,9.991c0.512,1.29-0.123,2.743-1.393,3.256l0.901,2.334    c17.015,0.164,33.497,0.327,47.462,0.409c14.107,0.102,25.696,0.144,32.74,0.123h2.477c14.988-0.041,21.008-0.061,33.887,2.498    l-1.414-1.229l-2.66-2.334c-5.079-4.218-9.357-8.374-13.391-12.408l-0.041-0.041c-1.904-1.863-3.809-3.768-5.713-5.754    l-0.062-0.061l0,0c-6.573-6.594-13.187-12.818-22.175-18.367c-1.699-0.961-3.584-2.006-5.692-3.174    c-2.047-1.125-4.996-3.397-8.169-6.162l-0.041-0.041l-0.042-0.041l-0.614-0.512c-3.419-2.97-6.634-6.122-9.234-8.805    c-0.676-0.695-1.617-1.801-2.661-3.133c-1.884-2.17-3.399-4.136-4.238-5.61c-0.39-0.676-0.759-1.372-1.105-2.089h-0.021v-0.02    l-0.123-0.205c-1.945-3.214-3.338-6.389-3.194-8.496c-1.106-3.584-1.986-7.229-2.784-10.566l-0.287-1.188    c-4.443-18.715-11.262-25.84-17.916-32.781c-5.528-5.795-10.996-11.486-15.151-22.952c-6.286-17.384-14.927-25.123-24.182-33.437    c-6.654-5.938-13.616-12.183-20.373-22.236l-0.758,1.229c-4.115,6.655-7.555,10.197-11.097,13.861    c-2.252,2.314-4.587,4.73-7.146,8.027c-3.767,4.853-5.774,10.585-7.801,16.42L226.802,241.36z M260.238,242.241    c1.064-0.881,2.641-0.759,3.542,0.307c0.88,1.064,0.737,2.642-0.307,3.522c-0.062,0.04-19.247,15.539-19.82,22.604    c-0.656,8.19-18.797,19.042-23.977,21.97l0.328,23.156c0,1.373-1.106,2.52-2.478,2.54c-1.393,0.021-2.519-1.105-2.54-2.478    l-0.327-24.652c-0.021-0.921,0.47-1.802,1.331-2.252c0.062-0.021,22.112-11.793,22.645-18.674    C239.395,258.908,260.197,242.281,260.238,242.241z M203.235,423.59c0,1.393-1.126,2.519-2.519,2.519    c-1.393,0-2.518-1.126-2.518-2.519v-9.398c-9.706,0.574-19.411,3.256-29.116,7.679l5.958-14.701    c0.512-1.29-0.123-2.765-1.414-3.276c-0.368-0.144-0.757-0.205-1.146-0.164l2.99-7.392l0.02-0.04l0.02-0.041l2.539-6.266    c0.513-1.29-0.123-2.744-1.413-3.256l-0.02-0.021h-0.041l-0.021-0.021h-0.041l-0.02-0.021h-0.042l-0.02-0.021h-0.042l-0.02-0.02    l0,0h-0.041l-0.062-0.021h-0.021l0,0h-0.041v-0.02h-0.062l0,0h-0.021h-0.02l-0.021-0.021h-0.061h-0.021h-0.041h-0.042l0,0    l-0.02-0.021h-0.062h-0.061h-0.042l0,0h-0.02h-0.042l0,0h-0.02l3.931-9.745l0.083-0.267h0.02l0.021-0.083l0,0v-0.039l0,0v-0.042    h0.021v-0.041l0,0v-0.04l0,0v-0.041h0.02v-0.042l0,0v-0.04l0,0v-0.041l0,0v-0.041l0.02-0.041l0,0v-0.041l0,0v-0.041v-0.205l0,0    v-0.041l0,0l-0.02-0.041l0,0v-0.041l0,0v-0.082l0,0v-0.041l5.631-13.943l0.491-0.225l0.471-0.226l0,0l0.47-0.226l0,0l0.451-0.225    l0.45-0.226l0.43-0.245l0.41-0.227l0.41-0.225l0,0l0.389-0.225l0.368-0.226h0.021l0.369-0.226l0.348-0.226l0,0l0.348-0.225l0,0    l0.348-0.226l0,0l0.328-0.246l0,0l0.307-0.225l0,0l0.307-0.225l0,0l0.307-0.226v-0.021l0.287-0.225l0,0l0.266-0.227l0,0    l0.287-0.245l0,0l0.246-0.226l0.021-0.021l0.246-0.226l0,0l0.246-0.245l0,0l0.225-0.246l0,0l0.246-0.245l0,0l0.225-0.246l0,0    l0.205-0.246l0,0l0.205-0.245l0,0l0.205-0.266l0,0l0.206-0.246l0,0l0.184-0.267l0,0l0.184-0.266l0,0l0.185-0.266l0,0l0.163-0.268    l0.348-0.531l0.143-0.287l0,0l0.164-0.287l0.143-0.287l0.144-0.285l0,0l0.143-0.287l0.144-0.307l0.143-0.287l0,0l0.123-0.307l0,0    l0.143-0.308l0,0l0.123-0.327l0,0l0.123-0.307l0,0l0.123-0.328l0,0l0.123-0.328l0,0l0.123-0.328v-0.02l0.123-0.328l0,0    l0.123-0.328v-0.02l0.123-0.349l0,0l0.123-0.348l0,0l0.103-0.349v-0.02l0.123-0.349v-0.021l0.123-0.348v-0.021l0.226-0.736    l0.02-0.021l0.103-0.368v-0.021l0.123-0.39l0,0l0.123-0.389v-0.021l0.123-0.389l0.02-0.02l0.778-2.56l0.635,2.089    c2.723,8.865,4.34,14.127,14.579,18.488l5.61,13.861c-0.02,0.145-0.02,0.328-0.02,0.492v0.041l0,0v0.041l0,0l0.02,0.082l0,0v0.041    l0,0v0.04h0.02v0.042l0,0v0.041l0,0v0.04h0.021v0.041l0,0v0.042l0,0l0.021,0.039l0,0v0.021v0.021l0,0l0.02,0.021v0.021v0.021v0.02    l0.021,0.021v0.02l0.021,0.021l0,0v0.041l0,0l0.02,0.041l0,0l0.021,0.04l0,0l3.788,9.398h-0.041l0,0h-0.041l0,0h-0.042h-0.041    h-0.02h-0.042l0,0h-0.041l0,0h-0.041l0,0l-0.041,0.021l0,0h-0.042h-0.04l0,0h-0.042l-0.041,0.021h-0.021h-0.041l-0.041,0.02l0,0    h-0.041l-0.042,0.02h-0.04l-0.042,0.021l-0.041,0.021h-0.041l-0.041,0.021l-0.042,0.021h-0.04l0,0l-0.042,0.021l-0.041,0.02    l-0.041,0.021l-0.041,0.02l-0.042,0.021l-0.041,0.021l-0.041,0.021l-0.02,0.02l0,0l-0.042,0.021l-0.041,0.02l-0.041,0.021l0,0    l-0.041,0.021l-0.021,0.021l-0.041,0.041l-0.042,0.02l-0.04,0.021l-0.021,0.021l-0.041,0.041l-0.042,0.021l-0.02,0.039    l-0.041,0.021l-0.042,0.041l-0.02,0.021l-0.042,0.042l-0.02,0.02l-0.041,0.041l-0.021,0.021l-0.041,0.041l-0.02,0.04l-0.021,0.021    l-0.041,0.041l-0.021,0.041l-0.021,0.041l-0.041,0.04l-0.02,0.042l-0.021,0.02l-0.021,0.041l-0.02,0.041l-0.021,0.041    l-0.021,0.041l-0.04,0.041c-0.328,0.676-0.328,1.412-0.083,2.068l3.625,8.967l0.041,0.063v0.041l1.884,4.627    c-1.004-0.081-1.986,0.43-2.458,1.372c-0.327,0.676-0.348,1.413-0.082,2.068l5.897,14.64c-9.623-4.832-19.268-7.126-28.891-7.289    V423.59z M278.993,417.141c0,1.393-1.126,2.518-2.519,2.518c-1.392,0-2.519-1.125-2.519-2.518v-9.828    c-6.388,0.471-12.776,2.149-19.123,4.873l3.665-9.07c0.511-1.29-0.123-2.766-1.393-3.276l-0.123-0.042l0.287-0.695l0.02-0.041    l0.021-0.041l0.021-0.041l3.357-8.313l0.021-0.062l0.021-0.062l0.021-0.062l0.021-0.062v-0.062l0.021-0.062l0.021-0.061v-0.063    l0.02-0.061v-0.062l0.021-0.062v-0.062v-0.062v-0.062v-0.062v-0.061l0,0v-0.063l0,0v-0.061l0,0v-0.062v-0.062h-0.021v-0.062l0,0    v-0.062l-0.02-0.062l-0.021-0.062v-0.041l0,0l-0.021-0.062l0,0l-0.021-0.062l-0.021-0.061v-0.063h-0.021v-0.041l-0.021-0.02    v-0.041h-0.021l-0.021-0.063l0,0l-0.021-0.061l0,0l-0.021-0.041l0,0l-0.021-0.061h-0.021l-0.02-0.042v-0.021l-0.083-0.144h-0.021    l-0.122-0.204l-0.042-0.041l0,0c-0.122-0.144-0.245-0.266-0.389-0.389h-0.02c-0.145-0.104-0.287-0.205-0.472-0.287h-0.02    l-0.042-0.021l-0.021-0.021l-0.04-0.021h-0.021l2.539-6.286c0.144-0.348,0.205-0.717,0.185-1.085l3.911-9.706    c7.657-3.582,8.743-6.736,10.667-13.041c1.905,6.162,3.276,9.93,10.504,13.083l3.891,9.644c-0.021,0.369,0.041,0.737,0.184,1.064    l2.437,6.041h-0.02c-0.328,0.143-0.595,0.327-0.84,0.553l0,0l-0.082,0.082l0,0l-0.041,0.061l-0.021,0.021l-0.021,0.021    l-0.144,0.186l-0.02,0.039l-0.021,0.021v0.021l-0.02,0.021l-0.062,0.082v0.02l-0.021,0.042l-0.021,0.021v0.041l-0.061,0.123    h-0.021v0.061h-0.021v0.021l-0.021,0.042l0,0v0.02l-0.021,0.02v0.021l-0.021,0.041v0.021v0.04l0,0l-0.021,0.021l-0.021,0.062v0.04    l0,0v0.041l-0.021,0.063l0,0v0.02l-0.021,0.041v0.062l0,0v0.042l-0.021,0.122v0.021v0.02v0.227v0.041v0.02l0,0v0.062v0.042v0.02    v0.021l0.021,0.123l0.021,0.02v0.021v0.021v0.021v0.021v0.021l0.041,0.123v0.04l0,0l0.021,0.021v0.04l0,0l0.021,0.021v0.04    l0.021,0.062l0.021,0.062l3.686,9.111c-0.594,0.205-1.105,0.635-1.413,1.229c-0.368,0.717-0.349,1.516-0.041,2.212l3.563,8.824    c-6.285-2.887-12.612-4.34-18.939-4.546V417.141z M258.825,88.41c0-1.371,1.126-2.518,2.498-2.518    c1.392,0,2.519,1.146,2.519,2.518v26.844c0,1.392-1.127,2.518-2.519,2.518c-1.372,0-2.498-1.126-2.498-2.518V88.41z     M367.59,144.492c1.208-0.676,2.744-0.205,3.398,1.004c0.656,1.228,0.206,2.743-1.002,3.418l-24.756,13.412    c-1.208,0.654-2.743,0.205-3.398-1.023c-0.654-1.209-0.205-2.744,1.004-3.399L367.59,144.492z M369.986,261.037    c1.208,0.655,1.658,2.19,1.002,3.419c-0.654,1.208-2.19,1.659-3.398,1.004l-24.754-13.411c-1.209-0.656-1.658-2.191-1.004-3.42    c0.655-1.208,2.19-1.658,3.398-1.004L369.986,261.037z M155.077,265.46c-1.208,0.655-2.743,0.204-3.399-1.004    c-0.655-1.229-0.204-2.764,1.004-3.419l24.734-13.412c1.229-0.654,2.764-0.204,3.419,1.004c0.655,1.229,0.204,2.764-1.024,3.42    L155.077,265.46z M152.682,148.914c-1.208-0.675-1.659-2.19-1.004-3.418c0.656-1.209,2.191-1.68,3.399-1.004l24.734,13.411    c1.228,0.655,1.679,2.19,1.024,3.399c-0.656,1.229-2.191,1.678-3.419,1.023L152.682,148.914z M313.453,115.376    c0.717-1.188,2.273-1.556,3.461-0.839c1.188,0.736,1.557,2.272,0.818,3.459l-8.723,14.19c-0.717,1.187-2.272,1.556-3.46,0.819    c-1.167-0.718-1.536-2.273-0.818-3.461L313.453,115.376z M369.863,202.457c1.371,0,2.518,1.127,2.518,2.519    s-1.146,2.519-2.518,2.519h-17.445c-1.393,0-2.519-1.127-2.519-2.519s1.126-2.519,2.519-2.519H369.863z M152.805,207.494    c-1.392,0-2.519-1.127-2.519-2.519s1.126-2.519,2.519-2.519h17.445c1.371,0,2.518,1.127,2.518,2.519s-1.146,2.519-2.518,2.519    H152.805z M204.935,117.996c-0.738-1.187-0.37-2.723,0.818-3.459c1.188-0.717,2.744-0.35,3.46,0.839l8.723,14.169    c0.716,1.188,0.347,2.743-0.84,3.461c-1.168,0.736-2.723,0.367-3.46-0.819L204.935,117.996z M258.825,139.25    c0-1.393,1.126-2.519,2.498-2.519c1.392,0,2.519,1.126,2.519,2.519v15.131c0,1.372-1.127,2.519-2.519,2.519    c-1.372,0-2.498-1.146-2.498-2.519V139.25z M317.016,169.943c1.188-0.697,2.725-0.287,3.42,0.92    c0.676,1.188,0.267,2.725-0.922,3.42l-13.104,7.556c-1.207,0.696-2.743,0.286-3.419-0.921c-0.695-1.188-0.287-2.724,0.921-3.42    L317.016,169.943z M203.153,174.283c-1.188-0.695-1.597-2.231-0.921-3.42c0.697-1.207,2.232-1.617,3.419-0.92l13.104,7.555    c1.208,0.696,1.618,2.232,0.921,3.42c-0.676,1.207-2.211,1.617-3.419,0.921L203.153,174.283z M287.9,153.931    c0.695-1.187,2.232-1.617,3.419-0.921c1.208,0.676,1.618,2.211,0.942,3.42l-4.627,8.005c-0.677,1.188-2.232,1.598-3.42,0.921    c-1.188-0.695-1.617-2.23-0.922-3.419L287.9,153.931z M318.838,202.457c1.373,0,2.498,1.127,2.498,2.519s-1.125,2.519-2.498,2.519    h-9.254c-1.372,0-2.498-1.127-2.498-2.519s1.126-2.519,2.498-2.519H318.838z M203.829,207.494c-1.371,0-2.498-1.127-2.498-2.519    s1.127-2.519,2.498-2.519h9.255c1.372,0,2.498,1.127,2.498,2.519s-1.126,2.519-2.498,2.519H203.829z M230.406,156.43    c-0.676-1.209-0.267-2.744,0.921-3.42c1.208-0.696,2.744-0.266,3.439,0.921l4.607,8.006c0.697,1.188,0.267,2.724-0.921,3.419    c-1.208,0.677-2.744,0.268-3.419-0.921L230.406,156.43z M341.156,320.846l-0.02-0.123l-0.021-0.021L341.156,320.846z" fill-rule="evenodd" clip-rule="evenodd"></path></g></g></svg>