<svg xmlns="http://www.w3.org/2000/svg" xmlns:xlink="http://www.w3.org/1999/xlink" version="1.1" x="0px" y="0px" viewBox="0 0 100 100" enable-background="new 0 0 100 100" xml:space="preserve"><g><path fill-rule="evenodd" clip-rule="evenodd" fill="#000000" d="M53.109,46.721c-0.023,0.069,0.035-0.001,0.048,0.022   c0.034,0.076,0.027,0.254,0.046,0.421c0.015,0.126,0.051,0.251,0.069,0.374c0.025,0.147,0.007,0.303,0.023,0.444   c0.017,0.137,0.055,0.256,0.07,0.373c0.055,0.422,0.101,0.822,0.162,1.214c0.026,0.149,0.012,0.284,0.025,0.42   c0.013,0.12,0.08,0.234,0.094,0.351c0.017,0.144-0.002,0.296,0.021,0.443c0.042,0.245,0.075,0.481,0.118,0.771   c0.02,0.135,0.009,0.28,0.022,0.418c0.014,0.133,0.079,0.265,0.094,0.397c0.014,0.117-0.012,0.216,0,0.327   c0.015,0.128,0.079,0.246,0.093,0.373c0.034,0.302,0.04,0.61,0.071,0.911c0.013,0.129,0.077,0.249,0.094,0.374   c0.014,0.108-0.012,0.213,0,0.327c0.013,0.128,0.076,0.263,0.094,0.396c0.012,0.117,0.007,0.231,0.021,0.351   c0.026,0.192,0.033,0.42,0.071,0.653c0.015,0.094,0.06,0.188,0.069,0.28c0.012,0.108-0.011,0.22,0,0.326   c0.012,0.12,0.078,0.23,0.094,0.351c0.016,0.117-0.011,0.232,0,0.351c0.011,0.108,0.054,0.211,0.07,0.326   c0.013,0.095,0.013,0.207,0.024,0.304c0.01,0.105,0.055,0.202,0.067,0.303c0.018,0.124-0.01,0.253,0,0.374   c0.014,0.127,0.08,0.248,0.095,0.373c0.013,0.11-0.012,0.222,0,0.327c0.013,0.12,0.08,0.235,0.093,0.352   c0.04,0.316,0.037,0.637,0.071,0.958c0.012,0.122,0.079,0.247,0.092,0.373c0.015,0.109-0.01,0.216,0,0.326   c0.015,0.122,0.079,0.228,0.093,0.35c0.017,0.126-0.013,0.248,0,0.374c0.013,0.098,0.059,0.201,0.07,0.304   c0.016,0.116,0.007,0.237,0.023,0.351c0.017,0.1,0.06,0.185,0.071,0.279c0.013,0.11-0.011,0.238,0,0.35   c0.012,0.127,0.078,0.251,0.094,0.374c0.013,0.11-0.012,0.213,0,0.327c0.012,0.117,0.079,0.234,0.094,0.351   c0.013,0.112-0.015,0.237,0,0.351c0.012,0.108,0.058,0.199,0.07,0.303c0.012,0.117,0.007,0.242,0.021,0.35   c0.016,0.103,0.06,0.205,0.072,0.305c0.013,0.118-0.014,0.23,0,0.349c0.012,0.121,0.079,0.231,0.093,0.352   c0.016,0.119-0.014,0.254,0,0.372c0.013,0.111,0.058,0.202,0.071,0.304c0.013,0.121,0.003,0.236,0.021,0.351   c0.017,0.096,0.06,0.186,0.07,0.281c0.014,0.111-0.011,0.236,0,0.35c0.014,0.115,0.079,0.235,0.094,0.351   c0.015,0.123-0.015,0.255,0,0.374c0.014,0.109,0.058,0.2,0.069,0.303c0.014,0.102,0.013,0.204,0.022,0.305   c0.017,0.104,0.059,0.196,0.071,0.303c0.015,0.118-0.012,0.231,0,0.35c0.014,0.129,0.08,0.249,0.094,0.374   c0.014,0.11-0.011,0.219,0,0.326c0.014,0.132,0.076,0.24,0.094,0.374c0.035,0.307,0.038,0.625,0.068,0.933   c0.016,0.132,0.079,0.247,0.095,0.375c0.014,0.11-0.012,0.22,0,0.326c0.014,0.128,0.079,0.252,0.093,0.375   c0.016,0.123-0.014,0.246,0,0.374c0.013,0.102,0.059,0.201,0.071,0.301c0.012,0.123,0.005,0.24,0.023,0.352   c0.014,0.096,0.059,0.186,0.068,0.279c0.014,0.109-0.01,0.219,0,0.327c0.015,0.13,0.079,0.249,0.096,0.374   c0.017,0.148-0.004,0.296,0.021,0.444c0.012,0.068,0.038,0.127,0.047,0.187c0.041,0.259,0.055,0.643,0.095,1.004   c0.012,0.13,0.077,0.248,0.092,0.373c0.014,0.11-0.01,0.221,0,0.327c0.016,0.128,0.079,0.248,0.094,0.373   c0.021,0.19-0.001,0.29,0.023,0.421c0.036,0.185,0.141,0.286,0.187,0.466c0.071,0.288,0.049,0.695,0.07,1.052   c0.042,0.725,0.021,1.429,0.07,2.125c0.13,1.822-0.216,3.547-0.678,4.854c-0.726,2.062-1.894,3.687-3.361,5.021   c-0.09,0.083-0.184,0.186-0.304,0.232c-0.287,0.283-0.605,0.518-0.935,0.748c-0.326,0.229-0.693,0.431-1.051,0.629   c-2.034,1.144-5.19,1.904-8.311,1.262c-3.58-0.735-6.213-2.814-7.915-5.463c-0.846-1.314-1.545-3.054-1.774-4.927   c-0.062-0.503-0.067-1.01-0.164-1.517c-0.45-2.36-0.701-4.836-1.075-7.285c-0.125-0.825-0.237-1.703-0.396-2.544   c-0.012-0.057-0.006-0.13-0.024-0.187c-0.061-0.2-0.149-0.529-0.211-0.817c-0.24-1.137-0.474-2.319-0.723-3.455   c-0.103-0.466-0.145-0.958-0.28-1.379c-0.08-0.246-0.217-0.508-0.327-0.77c-0.753-1.796-1.747-3.504-3.269-4.576   c-0.269,0.182-0.556,0.342-0.864,0.491c-0.62,0.295-1.14,0.562-2.007,0.7c-0.673,0.107-1.249,0.027-1.215-0.747   c0.01-0.217,0.083-0.434,0.14-0.583c0.302-0.792,0.937-1.519,1.518-2.196c2.284-2.653,5.152-4.72,7.985-6.863   c0.177-0.133,0.371-0.251,0.56-0.374c0.91-0.594,1.807-1.276,2.801-1.845c0.782-0.446,1.532-0.889,2.452-1.26   c0.408-0.166,1.057-0.463,1.494-0.35c0.304,0.078,0.546,0.462,0.561,0.863c0.021,0.584-0.357,1.092-0.654,1.518   c-0.316,0.451-0.649,0.834-0.957,1.238c0.743,1.764,1.573,3.55,2.31,5.463c0.185,0.478,0.397,0.947,0.538,1.447   c0.144,0.513,0.266,1.024,0.397,1.563c0.247,1.023,0.564,2.061,0.771,3.151c0.098,0.526,0.126,1.096,0.186,1.659   c0.395,3.708,0.809,7.69,1.214,11.511c0.016,0.149,0.015,0.314,0.023,0.466c0.017,0.279,0.014,0.527,0.023,0.839   c0.004,0.117,0.042,0.234,0.047,0.352c0.004,0.122-0.026,0.25-0.022,0.373c0.001,0.129,0.042,0.247,0.046,0.375   c0.004,0.121-0.025,0.255-0.023,0.373c0.003,0.123,0.042,0.23,0.047,0.35c0.008,0.193-0.047,0.392-0.023,0.582   c0.132,1.072,1.572,1.697,2.476,0.889c0.286-0.256,0.5-0.669,0.466-1.237c-0.004-0.085-0.044-0.186-0.046-0.28   c-0.002-0.104,0.046-0.22,0.046-0.326c0-0.192-0.05-0.39-0.046-0.584c0.006-0.322,0.007-0.586,0-0.935   c-0.003-0.123-0.043-0.241-0.048-0.373c-0.003-0.119,0.027-0.251,0.024-0.373c-0.002-0.119-0.042-0.237-0.046-0.351   c-0.006-0.146,0.028-0.278,0.022-0.422c-0.003-0.11-0.042-0.212-0.045-0.326c-0.007-0.14,0.028-0.277,0.023-0.419   c-0.005-0.108-0.043-0.216-0.047-0.327c-0.005-0.13,0.027-0.266,0.024-0.397c-0.003-0.123-0.042-0.229-0.047-0.35   c-0.005-0.13,0.027-0.267,0.023-0.396c-0.003-0.13-0.046-0.254-0.046-0.375c0-0.108,0.048-0.218,0.046-0.327   c-0.002-0.122-0.043-0.248-0.046-0.374c-0.003-0.121,0.026-0.253,0.023-0.372c-0.002-0.127-0.043-0.252-0.047-0.374   c-0.003-0.128,0.027-0.251,0.024-0.374c-0.003-0.124-0.043-0.244-0.047-0.375c-0.004-0.119,0.027-0.25,0.023-0.372   c-0.002-0.116-0.042-0.237-0.047-0.351c-0.008-0.235,0.078-0.476-0.023-0.699c0.109-0.214,0.039-0.582,0.023-0.935   c-0.158-3.618-0.252-7.397-0.42-10.997c-0.18-3.887-0.29-7.854-0.466-11.72c-0.27-5.918-0.432-11.645-0.701-17.58   c-0.077-1.69-0.151-3.416-0.211-5.136c-0.008-0.247,0.012-0.507-0.023-0.724c-0.021-0.131-0.132-0.218-0.163-0.373   c-0.06-0.298-0.018-0.699,0-1.027c0.014-0.312,0.054-0.624,0.092-0.911c-0.345-0.599-0.634-1.518-0.466-2.452   c0.064-0.357,0.11-0.706,0.21-1.027c0.37-1.189,1.165-2.129,2.031-2.872c1.194-1.024,2.689-1.792,4.179-2.381   c0.042-0.307,0.134-0.602,0.42-0.654c0.288-0.053,0.43,0.126,0.653,0.234c1.452-0.547,2.99-1.011,4.437-1.564   c0.114,0.134,0.187,0.31,0.279,0.467c0.034,0.144-0.144,0.073-0.094,0.233c0.038,0.07,0.019,0.201,0.047,0.28   c-0.176,0.053-0.368,0.166-0.583,0.257c-0.193,0.083-0.45,0.229-0.584,0.233c-0.188,0.005-0.173-0.194-0.374-0.233   c-0.928,0.302-1.857,0.601-2.755,0.934c0.079,0.232,0.223,0.401,0.281,0.653c3.312-1.177,6.652-2.328,9.97-3.501   c-0.036-0.176-0.25-0.374-0.306-0.607c0.706-0.268,1.367-0.578,2.079-0.839c-0.018-0.178-0.15-0.341-0.21-0.585   c-0.099-0.399-0.035-0.875,0.023-1.283c1.591-0.534,3.14-1.111,4.831-1.542c0.314,0.256,0.515,0.625,0.725,0.981   c0.223-0.032,0.389,0.106,0.585,0.21c0.166,0.088,0.369,0.235,0.535,0.28c0.176,0.047,0.411,0.015,0.632,0.023   c1.38,0.052,3.025,0.071,4.366,0.141c0.08,0.059-0.053,0.077-0.071,0.093c-0.633,0.533-1.417,1.034-2.17,1.471   c-0.827,0.479-1.744,0.873-2.71,1.167c-0.06,0.087-0.021,0.273-0.068,0.374c-0.749,0.418-1.446,0.939-2.242,1.331   c-0.805,0.396-1.663,0.676-2.545,1.027c-0.203-0.038-0.266-0.216-0.467-0.258c-0.621,0.235-1.283,0.429-1.914,0.655   c-0.056-0.195-0.081-0.417-0.141-0.608c-2.262,1.024-4.427,2.125-6.654,3.246c-1.613,0.811-3.41,1.485-4.599,2.826   c-0.271,0.304-0.559,0.672-0.793,1.05c-0.078,0.123-0.194,0.267-0.234,0.374c-0.04,0.113-0.035,0.25-0.07,0.374   c-0.09,0.319-0.218,0.66-0.28,1.003c-0.094,0.515-0.047,1.014-0.071,1.612c-0.005,0.134-0.063,0.234-0.069,0.373   c-0.012,0.227,0.045,0.487,0.069,0.748c0.547,5.541,1.116,11.253,1.658,16.856c0.163,1.686,0.305,3.441,0.537,5.089   c0.021,0.168,0.118,0.747,0.118,0.747c0.01-0.008,0.01-0.074,0.021-0.023C53.13,46.374,53.135,46.558,53.109,46.721z M50.939,13.31   c-0.002-0.014-0.005-0.027-0.023-0.022c-0.335,0.168-0.716,0.328-1.052,0.491c-1.014,0.491-1.833,1.028-2.638,1.728   c-0.489,0.425-0.967,0.963-1.331,1.563c-0.369,0.607-0.694,1.363-0.631,2.241c0.846-2.912,3.215-4.303,5.883-5.393   C51.061,13.734,51.009,13.512,50.939,13.31z"></path></g></svg>