<svg xmlns="http://www.w3.org/2000/svg" xmlns:xlink="http://www.w3.org/1999/xlink" xml:space="preserve" version="1.1" style="shape-rendering:geometricPrecision;text-rendering:geometricPrecision;image-rendering:optimizeQuality;" viewBox="0 0 2540 2540" x="0px" y="0px" fill-rule="evenodd" clip-rule="evenodd">
<g><path class="fil0" d="M762 1037c-61,91 -168,145 -282,134l0 1015 970 0 0 -758c0,-28 22,-51 50,-51l421 0c28,0 50,23 50,51l0 758 89 0 0 -1015c-114,11 -221,-43 -282,-134 -121,181 -387,181 -508,0 -121,181 -387,181 -508,0zm-384 107c-140,-66 -203,-242 -163,-293l413 -574c9,-15 25,-25 44,-25l1196 0 0 0c16,0 31,8 41,21l415 576c42,53 -22,229 -162,295l0 1093c0,28 -23,51 -51,51l-1682 0c-28,0 -51,-23 -51,-51l0 -1093zm1173 1042l319 0 0 -707 -319 0 0 707zm-230 -1832l0 478 383 0 -171 -478 -212 0zm-102 478l0 -478 -212 0 -171 478 383 0zm421 -478l172 478 375 0 -345 -478 -202 0zm-912 478l172 -478 -202 0 -345 478 375 0zm481 101l-386 0c62,183 324,183 386,0zm508 0l-386 0c62,183 324,183 386,0zm508 0l-386 0c62,183 324,183 386,0zm-1577 83c24,-23 42,-51 53,-83l-386 0c48,140 225,184 333,83z"></path><path class="fil0" d="M778 1782l319 0 0 -303 -319 0 0 303zm369 101l-420 0c-28,0 -51,-23 -51,-51l0 -404c0,-28 23,-51 51,-51l420 0c28,0 51,23 51,51l0 404c0,28 -23,51 -51,51z"></path><path class="fil0" d="M1685 1823c0,-67 102,-67 102,0 0,77 17,169 -51,169 -68,0 -51,-92 -51,-169z"></path></g></svg>