<svg fill="#2E4262" xmlns="http://www.w3.org/2000/svg" xmlns:xlink="http://www.w3.org/1999/xlink" version="1.1" x="0px" y="0px" viewBox="0 0 100 100" style="enable-background:new 0 0 100 100;" xml:space="preserve"><g><path d="M16.035,20.535c-0.285,0.328-0.572,0.654-0.847,0.99c-0.111,0.135-0.215,0.276-0.324,0.413   c-0.35,0.438-0.698,0.878-1.032,1.328c-0.032,0.043-0.061,0.087-0.093,0.13c-3.372,4.584-5.9,9.823-7.346,15.494   c-0.015,0.059-0.026,0.118-0.041,0.177c-0.161,0.643-0.313,1.29-0.446,1.943c-0.103,0.503-0.187,1.012-0.272,1.521   c-0.036,0.214-0.081,0.426-0.114,0.641c-0.455,2.963-0.618,6.01-0.46,9.106c0.066,1.319,0.2,2.62,0.378,3.907   c0.024,0.177,0.042,0.356,0.068,0.533c0.055,0.367,0.125,0.73,0.189,1.094c0.066,0.377,0.127,0.756,0.202,1.129   c0.043,0.211,0.094,0.419,0.14,0.629c0.117,0.543,0.239,1.085,0.375,1.62c0.014,0.056,0.031,0.11,0.045,0.166   C11.514,80.946,29.142,95,49.949,95c0.775,0,1.555-0.021,2.335-0.061c3.091-0.155,6.101-0.625,8.999-1.376   c0.294-0.076,0.581-0.167,0.872-0.248c0.414-0.116,0.83-0.227,1.239-0.354c0.68-0.212,1.352-0.441,2.017-0.684   c0.015-0.005,0.03-0.01,0.045-0.015c2.306-0.844,4.513-1.874,6.615-3.062c0.202-0.086,0.391-0.193,0.561-0.326   c2.692-1.573,5.202-3.41,7.491-5.48c0.043-0.039,0.088-0.076,0.131-0.114c0.412-0.375,0.811-0.763,1.209-1.152   c0.128-0.125,0.26-0.246,0.386-0.372c0.304-0.306,0.598-0.622,0.893-0.937c0.209-0.222,0.423-0.44,0.628-0.666   c0.203-0.225,0.396-0.457,0.594-0.686c0.285-0.328,0.572-0.654,0.847-0.99c0.111-0.135,0.215-0.276,0.324-0.413   c0.35-0.438,0.698-0.878,1.032-1.328c0.032-0.043,0.061-0.087,0.093-0.13c0.226-0.307,0.444-0.618,0.662-0.931   c0.09-0.107,0.17-0.22,0.242-0.34c2.922-4.273,5.128-9.071,6.441-14.223c0.015-0.059,0.026-0.118,0.041-0.177   c0.161-0.643,0.313-1.29,0.446-1.943c0.103-0.503,0.187-1.012,0.272-1.521c0.036-0.214,0.081-0.426,0.114-0.641   c0.455-2.963,0.618-6.01,0.46-9.106c-0.066-1.319-0.2-2.62-0.378-3.907c-0.024-0.177-0.042-0.356-0.068-0.533   c-0.055-0.367-0.125-0.73-0.189-1.094c-0.066-0.377-0.127-0.756-0.202-1.129c-0.043-0.211-0.094-0.419-0.14-0.629   c-0.117-0.543-0.239-1.085-0.375-1.62c-0.014-0.056-0.031-0.11-0.045-0.166C88.486,19.054,70.858,5,50.051,5   c-0.775,0-1.555,0.021-2.335,0.061c-3.091,0.155-6.101,0.625-8.999,1.376c-0.294,0.076-0.581,0.167-0.872,0.248   c-0.414,0.116-0.83,0.227-1.239,0.354c-0.68,0.212-1.352,0.441-2.017,0.684c-0.015,0.005-0.03,0.01-0.045,0.015   c-5.493,2.01-10.448,5.053-14.667,8.868c-0.043,0.039-0.088,0.076-0.131,0.114c-0.412,0.375-0.811,0.763-1.209,1.152   c-0.128,0.125-0.26,0.246-0.386,0.372c-0.304,0.306-0.598,0.622-0.893,0.937c-0.209,0.222-0.423,0.44-0.628,0.666   C16.427,20.074,16.234,20.307,16.035,20.535z M21.689,21.776c0.115-0.116,0.236-0.226,0.353-0.34   c0.35-0.343,0.702-0.685,1.065-1.015c0.042-0.038,0.085-0.073,0.127-0.111c3.765-3.397,8.174-6.093,13.023-7.873   c0.052-0.019,0.105-0.035,0.157-0.053c0.554-0.201,1.112-0.392,1.676-0.568c0.435-0.135,0.877-0.256,1.318-0.377   c0.186-0.051,0.37-0.11,0.557-0.159c1.939-0.501,3.94-0.863,5.992-1.071c0.667-0.068,1.339-0.118,2.011-0.153   c0.673-0.034,1.351-0.052,2.032-0.052c2.072,0,4.107,0.159,6.095,0.464c-12.093,5.855-21.09,16.293-25.466,29.74   c-4.665-4.598-8.207-10.304-10.128-16.7c-0.036-0.118-0.088-0.226-0.139-0.335c0.177-0.196,0.362-0.384,0.542-0.576   C21.165,22.322,21.422,22.044,21.689,21.776z M88.745,40.055c0.121,0.47,0.225,0.946,0.329,1.423   c0.042,0.193,0.089,0.383,0.128,0.577c0.065,0.321,0.117,0.647,0.174,0.971c0.059,0.335,0.124,0.668,0.174,1.006   c0.019,0.126,0.031,0.255,0.049,0.381c0.072,0.511,0.141,1.024,0.193,1.542c0.069,0.677,0.119,1.351,0.154,2.023   c0.033,0.669,0.051,1.343,0.051,2.021c0,2.062-0.157,4.088-0.46,6.068c-0.034,0.222-0.08,0.44-0.117,0.66   c-0.072,0.421-0.141,0.843-0.226,1.26c-0.121,0.591-0.257,1.177-0.404,1.759c-0.011,0.042-0.019,0.085-0.029,0.127   c-0.641,2.505-1.522,4.923-2.617,7.227c-4.686-18.727-15.022-29.597-22.221-34.161c3.741-4.944,8.613-8.908,14.74-10.797   c4.748,4.885,8.267,10.969,10.04,17.755C88.716,39.952,88.732,40.003,88.745,40.055z M82.149,73.763   c-0.297,0.402-0.608,0.794-0.92,1.185c-0.096,0.12-0.187,0.243-0.285,0.362c-0.247,0.302-0.506,0.595-0.762,0.89   c-0.173,0.199-0.342,0.403-0.519,0.599c-0.185,0.206-0.38,0.403-0.57,0.605c-0.259,0.275-0.516,0.553-0.783,0.821   c-0.115,0.116-0.236,0.226-0.353,0.34c-0.35,0.343-0.702,0.685-1.065,1.015c-0.042,0.038-0.085,0.073-0.127,0.111   c-1.147,1.035-2.358,1.997-3.619,2.896c-0.905-6.084-3.046-11.98-6.332-17.246c-3.053-4.914-6.958-9.103-11.607-12.49   c1.112-5.27,3.065-10.796,5.946-15.743c6.713,4.235,17.603,15.773,21.221,36.334c-0.049,0.068-0.095,0.138-0.144,0.205   C82.204,73.685,82.177,73.725,82.149,73.763z M63.587,87.617c-0.554,0.201-1.112,0.392-1.676,0.568   c-0.435,0.135-0.877,0.256-1.318,0.377c-0.186,0.051-0.37,0.11-0.557,0.159c-1.939,0.501-3.94,0.863-5.992,1.071   c-0.667,0.068-1.339,0.118-2.011,0.153c-0.673,0.034-1.351,0.052-2.032,0.052c-18.566,0-34.216-12.716-38.703-29.896   c-0.013-0.052-0.029-0.104-0.042-0.156c-0.121-0.47-0.225-0.946-0.329-1.423c-0.042-0.193-0.089-0.383-0.128-0.577   c-0.065-0.321-0.117-0.647-0.174-0.971c-0.059-0.335-0.124-0.668-0.174-1.006c-0.019-0.126-0.031-0.255-0.049-0.381   c-0.072-0.511-0.141-1.024-0.193-1.542c-0.069-0.677-0.119-1.351-0.154-2.023c-0.033-0.669-0.051-1.343-0.051-2.021   c0-0.104,0.007-0.206,0.008-0.31c3.447,5.996,8.899,12.558,16.591,17.81c6.229,4.254,15.304,8.506,26.684,8.506   c3.9,0,8.073-0.504,12.492-1.674c1.428,3.566,2.333,7.318,2.687,11.13c-1.521,0.795-3.093,1.504-4.721,2.101   C63.692,87.582,63.639,87.598,63.587,87.617z M16.708,27.865c5.579,14.687,18.872,25.64,34.726,28.433   c4.495,3.104,8.243,7.027,11.137,11.684c0.356,0.571,0.685,1.155,1.012,1.741C35.575,76.515,15.518,53.931,11.21,40.25   c0.01-0.041,0.018-0.084,0.029-0.125C12.366,35.721,14.232,31.582,16.708,27.865z M74.431,18.365   C61.002,23.93,53.408,38.086,50.493,51.017c-5.772-1.288-11.119-3.783-15.708-7.227c4.288-15.248,14.911-26.535,29.382-31.186   C67.884,14.016,71.336,15.969,74.431,18.365z"></path></g></svg>