<svg xmlns="http://www.w3.org/2000/svg" xmlns:xlink="http://www.w3.org/1999/xlink" version="1.1" x="0px" y="0px" viewBox="0 0 100 100" enable-background="new 0 0 100 100" xml:space="preserve"><g><path d="M46.2,45.4h13.4v2.1c2.4,0.2,4.9,0.6,7.3,1.1c-3.9-7.8-7.9-17.9-6.3-24.5c0,0,12.1-4.3,17.2,3.8c0,0-7.8-17.6-27.4-6.4   c0,0-6.2,1-7.4,7.7l-7.4,19.5c2.3-0.4,6.2-0.9,10.5-1.2V45.4z"></path><path d="M46.2,48.9c-4.7,0.3-8.9,1-11,1.3l-1.5,4c2.2,0.1,6.9,0.4,12.6,0.7V48.9z"></path><path d="M59.6,55.5c3.8,0.1,7.6,0.2,11.2,0.2c-0.9-1.5-1.9-3.3-3-5.4c-2.7-0.7-5.5-1.1-8.2-1.3V55.5z"></path><path d="M73.1,59.4c-0.3-0.5-0.8-1.3-1.4-2.3c-0.2,0-0.5,0-0.7,0c-3.6,0-7.5-0.1-11.3-0.2v1.6H46.2v-2.1c-6.1-0.3-11-0.6-13.1-0.8   l-0.9,2.5c-8.2,0.1-15.4,0.4-25.5,1c-1.4,0.1-0.3,1.8-0.3,1.8s15.8,14.4,44,16.7C78.5,79.9,94.2,60,94.2,60S96,56.7,73.1,59.4z"></path><polygon points="58.2,52.9 52.2,52.9 52.2,51 58.2,51 58.2,46.8 47.6,46.8 47.6,57.1 58.2,57.1  "></polygon></g></svg>