<svg xmlns="http://www.w3.org/2000/svg" data-name="Layer 1" viewBox="0 0 126 117.63" x="0px" y="0px"><title>yacht</title><path d="M156,67s-21,64-29,76c15-6,41-9,41-9S166,80,156,67Z" transform="translate(-115 -59)"></path><path d="M222,133c-3-28-15-67-60-74,0,0,12,19,14,74C193,132,207,131,222,133Z" transform="translate(-115 -59)"></path><path d="M115,159a38.39,38.39,0,0,0,1.22,6c4.75,0,4.21,3.94,4.84,7.33a4.76,4.76,0,0,0,4.73,3.82C169,180,195,160,222,170c2-10,15-25,19-30C149,143,115,159,115,159Z" transform="translate(-115 -59)"></path></svg>